<?xml version="1.0" standalone="no"?><!DOCTYPE svg PUBLIC "-//W3C//DTD SVG 1.1//EN" "http://www.w3.org/Graphics/SVG/1.1/DTD/svg11.dtd"><svg t="1657025825237" class="icon" viewBox="0 0 1024 1024" version="1.1" xmlns="http://www.w3.org/2000/svg" p-id="13592" xmlns:xlink="http://www.w3.org/1999/xlink" width="200" height="200"><defs><style type="text/css">@font-face { font-family: feedback-iconfont; src: url("//at.alicdn.com/t/font_1031158_u69w8yhxdu.woff2?t=1630033759944") format("woff2"), url("//at.alicdn.com/t/font_1031158_u69w8yhxdu.woff?t=1630033759944") format("woff"), url("//at.alicdn.com/t/font_1031158_u69w8yhxdu.ttf?t=1630033759944") format("truetype"); }
</style></defs><path d="M278.26087 198.121739V55.652174c0-31.165217 24.486957-55.652174 55.652173-55.652174s55.652174 24.486957 55.652174 55.652174v142.469565c0 31.165217-24.486957 55.652174-55.652174 55.652174s-55.652174-24.486957-55.652173-55.652174z m411.826087 55.652174c31.165217 0 55.652174-24.486957 55.652173-55.652174V55.652174c0-31.165217-24.486957-55.652174-55.652173-55.652174s-55.652174 24.486957-55.652174 55.652174v142.469565c0 31.165217 24.486957 55.652174 55.652174 55.652174zM313.878261 445.217391h395.130435c24.486957 0 44.521739-20.034783 44.521739-44.521739s-20.034783-44.521739-44.521739-44.521739H313.878261c-24.486957 0-44.521739 20.034783-44.521739 44.521739s20.034783 44.521739 44.521739 44.521739zM934.956522 77.913043h-92.382609c-24.486957 0-44.521739 20.034783-44.521739 44.52174s20.034783 44.521739 44.521739 44.521739H890.434783v756.869565H133.565217V166.956522h47.86087c24.486957 0 44.521739-20.034783 44.521739-44.521739s-20.034783-44.521739-44.521739-44.52174H89.043478c-24.486957 0-44.521739 24.486957-44.521739 48.973914V968.347826c0 24.486957 20.034783 44.521739 44.521739 44.521739h845.913044c24.486957 0 44.521739-20.034783 44.521739-44.521739V126.886957C979.478261 102.4 959.443478 77.913043 934.956522 77.913043z m-459.686957 89.043479h73.46087c24.486957 0 44.521739-20.034783 44.521739-44.521739s-20.034783-44.521739-44.521739-44.52174h-73.46087c-24.486957 0-44.521739 20.034783-44.521739 44.52174s20.034783 44.521739 44.521739 44.521739zM313.878261 645.565217h395.130435c24.486957 0 44.521739-20.034783 44.521739-44.521739s-20.034783-44.521739-44.521739-44.521739H313.878261c-24.486957 0-44.521739 20.034783-44.521739 44.521739s20.034783 44.521739 44.521739 44.521739z" p-id="13593"></path></svg>